<svg width="64" height="64" viewBox="0 0 64 64" fill="none" xmlns="http://www.w3.org/2000/svg">
<g clip-path="url(#clip0_74_102)">
<rect width="64" height="64" rx="2" fill="#F3F3F3"/>
<path d="M31.186 54.268C26.962 54.268 23.2713 53.308 20.114 51.388C16.9567 49.468 14.5033 46.8013 12.754 43.388C11.0047 39.932 10.13 35.9213 10.13 31.356C10.13 26.748 11.026 22.6947 12.818 19.196C14.6527 15.6547 17.234 12.9027 20.562 10.94C23.9327 8.93467 27.922 7.932 32.53 7.932C37.778 7.932 42.13 9.19066 45.586 11.708C49.042 14.2253 51.282 17.7027 52.306 22.14H43.154C42.4713 20.0493 41.234 18.428 39.442 17.276C37.65 16.0813 35.346 15.484 32.53 15.484C28.05 15.484 24.594 16.9133 22.162 19.772C19.73 22.588 18.514 26.4707 18.514 31.42C18.514 36.3693 19.7087 40.2093 22.098 42.94C24.53 45.628 27.8153 46.972 31.954 46.972C36.0073 46.972 39.058 45.884 41.106 43.708C43.1967 41.4893 44.4553 38.588 44.882 35.004H33.554V28.86H53.138V53.5H45.586L44.946 47.612C43.4953 49.7453 41.682 51.388 39.506 52.54C37.33 53.692 34.5567 54.268 31.186 54.268Z" fill="black"/>
</g>
<defs>
<clipPath id="clip0_74_102">
<rect width="64" height="64" rx="2" fill="white"/>
</clipPath>
</defs>
</svg>
